<svg width="19" height="19" viewBox="0 0 19 19" fill="none" xmlns="http://www.w3.org/2000/svg">
<path d="M5.9 17.0079C7.80858 17.9869 10.0041 18.2521 12.0909 17.7556C14.1777 17.2592 16.0186 16.0337 17.2818 14.3C18.545 12.5664 19.1474 10.4386 18.9806 8.30002C18.8137 6.16147 17.8886 4.15283 16.3718 2.63605C14.855 1.11928 12.8464 0.194111 10.7078 0.0272757C8.56929 -0.139559 6.44147 0.462906 4.70782 1.72611C2.97417 2.98931 1.74869 4.83017 1.25222 6.91697C0.755754 9.00377 1.02094 11.1993 2 13.1079L0 19.0079L5.9 17.0079Z" fill="#3B82F6"/>
<path d="M6 9.00786H6.01Z" fill="#3B82F6"/>
<path d="M10 9.00786H10.01Z" fill="#3B82F6"/>
<path d="M14 9.00786H14.01Z" fill="#3B82F6"/>
</svg>
